<?xml version="1.0" encoding="UTF-8"?>
<svg version="1.1" xmlns="http://www.w3.org/2000/svg" width="64" height="64">
<path d="M0 0 C3.96 0 7.92 0 12 0 C12.66 2.97 13.32 5.94 14 9 C16.92152966 8.48443594 19.22910428 7.8927597 21.9375 6.625 C25 6 25 6 28.3125 8.125 C32.08600683 12.16177474 32.08600683 12.16177474 32 15 C31.04987876 17.02417134 30.05008653 19.02583732 29 21 C29 21.99 29 22.98 29 24 C33.455 24.99 33.455 24.99 38 26 C38 29.96 38 33.92 38 38 C35.03 38.66 32.06 39.32 29 40 C29.67170806 43.8063457 30.72746564 47.35206816 32 51 C29.69 53.31 27.38 55.62 25 58 C24.29875 57.690625 23.5975 57.38125 22.875 57.0625 C19.91063343 55.96697322 17.12301892 55.43577008 14 55 C13.34 57.97 12.68 60.94 12 64 C8.04 64 4.08 64 0 64 C-0.66 61.03 -1.32 58.06 -2 55 C-5.8063457 55.67170806 -9.35206816 56.72746564 -13 58 C-15.31 55.69 -17.62 53.38 -20 51 C-19.690625 50.29875 -19.38125 49.5975 -19.0625 48.875 C-17.96697322 45.91063343 -17.43577008 43.12301892 -17 40 C-19.97 39.34 -22.94 38.68 -26 38 C-26 34.04 -26 30.08 -26 26 C-23.03 25.34 -20.06 24.68 -17 24 C-17.309375 23.13375 -17.61875 22.2675 -17.9375 21.375 C-18.288125 20.26125 -18.63875 19.1475 -19 18 C-19.33 17.01 -19.66 16.02 -20 15 C-20 11.54890805 -19.56381131 11.01796045 -17.3125 8.5625 C-15.73828125 7.00390625 -15.73828125 7.00390625 -14 6 C-11.56706052 6.325011 -9.71225857 7.11930742 -7.4375 8.0625 C-4.96858933 9.17948954 -4.96858933 9.17948954 -2 9 C-1.34 6.03 -0.68 3.06 0 0 Z M-2 22 C-5.48197606 25.39034511 -6.90237525 28.11876268 -7 33 C-5.40650019 38.1346105 -3.63279305 41.1987763 1 44 C4.87494583 45.26356929 6.70314805 45.09212647 10.625 43.875 C15.17078953 41.34956137 17.32191571 39.07945849 18.9375 34.125 C19.01985364 30.00731789 17.99357829 27.58844093 16 24 C10.24695578 18.0914681 5.0421874 18.08767367 -2 22 Z " fill="#001F5F" transform="translate(26,0)"/>
</svg>
