<?xml version="1.0" encoding="UTF-8"?>
<svg version="1.1" xmlns="http://www.w3.org/2000/svg" width="64" height="64">
<path d="M0 0 C1.50046875 0.00386719 1.50046875 0.00386719 3.03125 0.0078125 C4.0315625 0.00523438 5.031875 0.00265625 6.0625 0 C8.53125 0.1328125 8.53125 0.1328125 9.53125 1.1328125 C9.61986992 3.9444463 9.64647355 6.73139505 9.62890625 9.54296875 C9.6274913 10.38500351 9.62607635 11.22703827 9.62461853 12.09458923 C9.61900263 14.79486585 9.60644748 17.49506078 9.59375 20.1953125 C9.58873705 22.02148318 9.58417379 23.84765516 9.58007812 25.67382812 C9.56902804 30.16018792 9.55175279 34.64648634 9.53125 39.1328125 C10.52125 39.1328125 11.51125 39.1328125 12.53125 39.1328125 C12.53125 40.4528125 12.53125 41.7728125 12.53125 43.1328125 C-8.58875 43.1328125 -29.70875 43.1328125 -51.46875 43.1328125 C-51.46875 41.8128125 -51.46875 40.4928125 -51.46875 39.1328125 C-50.47875 39.1328125 -49.48875 39.1328125 -48.46875 39.1328125 C-48.48035156 38.13378906 -48.49195313 37.13476562 -48.50390625 36.10546875 C-48.51744141 34.16994141 -48.51744141 34.16994141 -48.53125 32.1953125 C-48.54285156 30.90753906 -48.55445313 29.61976562 -48.56640625 28.29296875 C-48.46875 25.1328125 -48.46875 25.1328125 -47.46875 24.1328125 C-45.63759117 24.03430079 -43.80255067 24.00308621 -41.96875 24.0078125 C-40.9684375 24.00523438 -39.968125 24.00265625 -38.9375 24 C-36.46875 24.1328125 -36.46875 24.1328125 -35.46875 25.1328125 C-35.39603259 27.48594805 -35.38504132 29.84114918 -35.40625 32.1953125 C-35.41527344 33.48566406 -35.42429687 34.77601562 -35.43359375 36.10546875 C-35.44519531 37.10449219 -35.45679687 38.10351562 -35.46875 39.1328125 C-34.80875 39.1328125 -34.14875 39.1328125 -33.46875 39.1328125 C-33.48035156 37.85664062 -33.49195312 36.58046875 -33.50390625 35.265625 C-33.51328417 33.59635563 -33.52238437 31.92708467 -33.53125 30.2578125 C-33.53962891 29.41605469 -33.54800781 28.57429688 -33.55664062 27.70703125 C-33.56147461 26.49853516 -33.56147461 26.49853516 -33.56640625 25.265625 C-33.57426147 24.15018311 -33.57426147 24.15018311 -33.58227539 23.01220703 C-33.46875 21.1328125 -33.46875 21.1328125 -32.46875 19.1328125 C-28.83875 19.1328125 -25.20875 19.1328125 -21.46875 19.1328125 C-20.3204815 21.4293495 -20.35313825 22.71594417 -20.37109375 25.265625 C-20.37431641 26.07128906 -20.37753906 26.87695312 -20.38085938 27.70703125 C-20.38923828 28.54878906 -20.39761719 29.39054687 -20.40625 30.2578125 C-20.41076172 31.10730469 -20.41527344 31.95679687 -20.41992188 32.83203125 C-20.43172126 34.93232159 -20.44965694 37.0325758 -20.46875 39.1328125 C-19.80875 39.1328125 -19.14875 39.1328125 -18.46875 39.1328125 C-18.48446045 38.01253662 -18.48446045 38.01253662 -18.50048828 36.86962891 C-18.5419577 33.49905742 -18.56804729 30.1285395 -18.59375 26.7578125 C-18.61050781 25.5821875 -18.62726562 24.4065625 -18.64453125 23.1953125 C-18.65419922 21.51308594 -18.65419922 21.51308594 -18.6640625 19.796875 C-18.67977295 18.24154053 -18.67977295 18.24154053 -18.69580078 16.65478516 C-18.46875 14.1328125 -18.46875 14.1328125 -16.46875 12.1328125 C-14.375 11.8671875 -14.375 11.8671875 -11.96875 11.8828125 C-11.1746875 11.87765625 -10.380625 11.8725 -9.5625 11.8671875 C-7.46875 12.1328125 -7.46875 12.1328125 -5.46875 14.1328125 C-5.24169922 16.65478516 -5.24169922 16.65478516 -5.2734375 19.796875 C-5.27988281 20.91835938 -5.28632812 22.03984375 -5.29296875 23.1953125 C-5.30972656 24.3709375 -5.32648437 25.5465625 -5.34375 26.7578125 C-5.35277344 27.94117187 -5.36179688 29.12453125 -5.37109375 30.34375 C-5.39472188 33.27363773 -5.42766486 36.2031259 -5.46875 39.1328125 C-4.80875 39.1328125 -4.14875 39.1328125 -3.46875 39.1328125 C-3.47398682 37.9869165 -3.47922363 36.84102051 -3.48461914 35.66040039 C-3.50266717 31.42440568 -3.51418128 27.18841438 -3.52368164 22.95239258 C-3.52872231 21.11612375 -3.53555477 19.27985896 -3.54418945 17.44360352 C-3.55626672 14.81004849 -3.56198081 12.17654634 -3.56640625 9.54296875 C-3.57156754 8.71692642 -3.57672882 7.89088409 -3.58204651 7.03981018 C-3.58224205 5.07044882 -3.53079152 3.10119636 -3.46875 1.1328125 C-2.46875 0.1328125 -2.46875 0.1328125 0 0 Z " fill="#001F5F" transform="translate(51.46875,20.8671875)"/>
<path d="M0 0 C1.905247 5.10334017 3.42589023 9.46342706 3 15 C1.68 15 0.36 15 -1 15 C-1.66 13.35 -2.32 11.7 -3 10 C-3.62261719 10.89138672 -3.62261719 10.89138672 -4.2578125 11.80078125 C-15.85362714 27.39933525 -31.90429708 36.85750013 -50.87890625 40.58984375 C-53.95997773 40.9947405 -56.89646844 41.0793384 -60 41 C-60.33 39.35 -60.66 37.7 -61 36 C-59.36804687 35.76216797 -59.36804687 35.76216797 -57.703125 35.51953125 C-38.09681203 32.48388836 -23.32367536 24.75708664 -10 10 C-9.34 9.01 -8.68 8.02 -8 7 C-10.31 7 -12.62 7 -15 7 C-15 5.68 -15 4.36 -15 3 C-9.89665983 1.094753 -5.53657294 -0.42589023 0 0 Z " fill="#001F5E" transform="translate(61,0)"/>
</svg>
