<?xml version="1.0" encoding="UTF-8"?>
<svg version="1.1" xmlns="http://www.w3.org/2000/svg" width="64" height="64">
<path d="M0 0 C0.69480469 -0.02449219 1.38960937 -0.04898438 2.10546875 -0.07421875 C7.28426425 -0.10347748 10.12465609 1.16632835 14.125 4.375 C17.41439137 7.66439137 17.68783464 10.82848023 18.125 15.375 C19.115 15.375 20.105 15.375 21.125 15.375 C21.125 19.995 21.125 24.615 21.125 29.375 C14.375 32.75 14.375 32.75 10.125 33.375 C10.125 34.365 10.125 35.355 10.125 36.375 C10.88425781 36.77332031 11.64351562 37.17164063 12.42578125 37.58203125 C13.41964844 38.11183594 14.41351563 38.64164063 15.4375 39.1875 C16.42363281 39.70957031 17.40976562 40.23164062 18.42578125 40.76953125 C23.20127996 43.60995089 24.74406337 45.95747936 26.125 51.375 C26.54051024 54.83758531 26.61645307 56.59314284 24.75 59.5625 C17.41691605 64.62581987 8.75350181 64.84854888 0.125 64.75 C-0.89078125 64.76160156 -1.9065625 64.77320312 -2.953125 64.78515625 C-10.65286228 64.75554188 -17.87888338 63.79125656 -24.5625 59.75 C-26.69048383 55.8993626 -25.9553235 52.52228217 -24.875 48.375 C-21.96873984 41.45533296 -15.2003349 38.73657735 -8.875 35.375 C-9.555625 34.385 -10.23625 33.395 -10.9375 32.375 C-11.51177734 31.5396875 -11.51177734 31.5396875 -12.09765625 30.6875 C-14.44526616 28.6819498 -14.44526616 28.6819498 -20.875 29.375 C-20.875 24.755 -20.875 20.135 -20.875 15.375 C-19.885 15.375 -18.895 15.375 -17.875 15.375 C-17.813125 14.34375 -17.75125 13.3125 -17.6875 12.25 C-16.61925591 7.15529744 -14.59886899 4.23535807 -10.19921875 1.23046875 C-6.83276213 -0.0086136 -3.54068548 0.00649667 0 0 Z M3.125 4.375 C7.125 5.375 7.125 5.375 7.125 5.375 Z M-13.875 13.375 C-12.875 16.375 -12.875 16.375 -12.875 16.375 Z M13.125 13.375 C14.125 16.375 14.125 16.375 14.125 16.375 Z M-12.875 16.375 C-12.875 20.005 -12.875 23.635 -12.875 27.375 C-12.545 27.375 -12.215 27.375 -11.875 27.375 C-11.875 23.745 -11.875 20.115 -11.875 16.375 C-12.205 16.375 -12.535 16.375 -12.875 16.375 Z M12.125 16.375 C12.125 20.665 12.125 24.955 12.125 29.375 C12.785 29.045 13.445 28.715 14.125 28.375 C13.795 24.415 13.465 20.455 13.125 16.375 C12.795 16.375 12.465 16.375 12.125 16.375 Z M-1.875 28.375 C-1.875 28.705 -1.875 29.035 -1.875 29.375 C-0.225 29.375 1.425 29.375 3.125 29.375 C3.125 29.045 3.125 28.715 3.125 28.375 C1.475 28.375 -0.175 28.375 -1.875 28.375 Z M4.125 29.375 C4.125 29.705 4.125 30.035 4.125 30.375 C6.105 30.375 8.085 30.375 10.125 30.375 C10.125 30.045 10.125 29.715 10.125 29.375 C8.145 29.375 6.165 29.375 4.125 29.375 Z M-3.875 30.375 C-2.875 32.375 -2.875 32.375 -2.875 32.375 Z M-1.875 33.375 C-1.875 33.705 -1.875 34.035 -1.875 34.375 C0.765 34.375 3.405 34.375 6.125 34.375 C6.125 34.045 6.125 33.715 6.125 33.375 C3.485 33.375 0.845 33.375 -1.875 33.375 Z M-1.875 38.375 C-1.545 39.365 -1.215 40.355 -0.875 41.375 C-0.215 41.375 0.445 41.375 1.125 41.375 C1.455 40.385 1.785 39.395 2.125 38.375 C0.805 38.375 -0.515 38.375 -1.875 38.375 Z M7.125 49.375 C7.125 49.705 7.125 50.035 7.125 50.375 C9.765 50.375 12.405 50.375 15.125 50.375 C15.125 50.045 15.125 49.715 15.125 49.375 C12.485 49.375 9.845 49.375 7.125 49.375 Z " fill="#001F5F" transform="translate(31.875,-0.375)"/>
</svg>
